PathFileType	4	(X/Y/Z)	./resultDataOpenSim/trcMotMarkerGrf/sub09/qtm-03-04.trc
DataRate	CameraRate	NumFrames	NumMarkers	Units	OrigDataRate	OrigDataStartFrame	OrigNumFrames
250.000000	250.000000	13	24	m	250.000000	176	469
Frame#	Time	L.Toe.Tip			R.Toe.Tip			L.Ankle.Lat			R.Ankle.Lat			L.Ankle.Med			R.Ankle.Med			L.Heel			R.Heel			L.Knee.Lat			R.Knee.Lat			L.Knee.Med			R.Knee.Med			L.Thigh.Upper			R.Thigh.Upper			L.ASIS			R.ASIS			V.Sacral			L.Acromium			R.Acromium			C7			L.Elbow			R.Elbow			L.Wrist.Lat			R.Wrist.Lat
		X1	Y1	Z1	X2	Y2	Z2	X3	Y3	Z3	X4	Y4	Z4	X5	Y5	Z5	X6	Y6	Z6	X7	Y7	Z7	X8	Y8	Z8	X9	Y9	Z9	X10	Y10	Z10	X11	Y11	Z11	X12	Y12	Z12	X13	Y13	Z13	X14	Y14	Z14	X15	Y15	Z15	X16	Y16	Z16	X17	Y17	Z17	X18	Y18	Z18	X19	Y19	Z19	X20	Y20	Z20	X21	Y21	Z21	X22	Y22	Z22	X23	Y23	Z23	X24	Y24	Z24

176	0.7	0.14093393	-0.0085819572	0.02602786	-0.62169308	0.049815205	0.094802175	-0.0065046224	0.021890062	-0.020119326	-0.70173993	0.1718578	0.14071141	0.010338505	0.045040333	0.075274169	-0.65491227	0.18424763	0.053724018	-0.079463262	-0.012924968	0.02399552	-0.75294211	0.20614231	0.080680208	0.010145482	0.4350491	-0.081439967	-0.3099969	0.41023083	0.21838461	0.0052841001	0.44166142	0.045075167	-0.30631543	0.39013377	0.09164738	-0.19024093	0.80765963	-0.1299428	-0.25203485	0.80177233	0.24029631	-0.12803827	0.89612769	-0.05982531	-0.14087163	0.88503622	0.18340315	-0.31905724	0.93991164	0.053483721	-0.16469776	1.3339601	-0.12037494	-0.1892246	1.3577952	0.21077556	-0.24155694	1.3957575	0.043027593	-0.33384619	1.012945	-0.15862617	-0.3086434	1.0049613	0.29850008	-0.28809548	0.7633135	-0.21670462	-0.094873258	0.82744322	0.30533557
177	0.704	0.14104467	-0.0089311191	0.026488193	-0.61856189	0.051545874	0.0956501	-0.0062241491	0.021618424	-0.019791271	-0.69337896	0.17732388	0.14196696	0.010484844	0.044654034	0.07574403	-0.64578373	0.18785179	0.055230477	-0.079454794	-0.012912005	0.024135334	-0.74306464	0.21318325	0.08166514	0.014658352	0.43366831	-0.081828983	-0.30033724	0.40898073	0.21969953	0.010883038	0.44049044	0.044731162	-0.29371583	0.3875247	0.092481615	-0.18364602	0.80802816	-0.13045719	-0.24477271	0.8006668	0.24025999	-0.12129285	0.89674141	-0.060660708	-0.13375918	0.8845097	0.18253509	-0.31404011	0.94097196	0.05469274	-0.15783504	1.334104	-0.12045546	-0.18197371	1.3578182	0.21066907	-0.23472266	1.3958267	0.042968293	-0.32612075	1.0125901	-0.15859422	-0.30294264	1.0057635	0.29828867	-0.2790697	0.76304743	-0.21683709	-0.091085424	0.82593654	0.30573016
178	0.708	0.14118005	-0.0092071465	0.026861876	-0.61510967	0.053320651	0.096561598	-0.0059029059	0.021376475	-0.019491645	-0.68439505	0.18276045	0.14326252	0.010737781	0.044291304	0.076162969	-0.63608286	0.19131872	0.056792628	-0.079403382	-0.012867361	0.024319045	-0.73263645	0.22005246	0.082773344	0.018881928	0.43238748	-0.082163965	-0.29057525	0.40789541	0.22085811	0.016243686	0.43918024	0.044460053	-0.2819383	0.38526585	0.093377407	-0.17705015	0.80834889	-0.13086627	-0.23737369	0.79966224	0.24004688	-0.11463176	0.89726267	-0.061409496	-0.12681224	0.88408703	0.1817086	-0.30833185	0.94216482	0.05610784	-0.15104437	1.3343337	-0.12054111	-0.17480459	1.3578901	0.21059305	-0.2278284	1.395994	0.042859396	-0.31831609	1.0122606	-0.15873015	-0.29725709	1.0066007	0.29818973	-0.26992364	0.7628398	-0.21692312	-0.087361091	0.82446159	0.30611359
179	0.712	0.1413227	-0.0094069366	0.027095863	-0.61128844	0.055140499	0.097518374	-0.005569934	0.021164142	-0.01925193	-0.67480784	0.18811114	0.14459736	0.011099501	0.043966196	0.076491451	-0.62602394	0.19470616	0.058399662	-0.079321779	-0.012796845	0.024493593	-0.72175676	0.22671138	0.08403802	0.022789337	0.43142956	-0.082507868	-0.27992164	0.4069157	0.2218827	0.021156438	0.43781945	0.044151751	-0.27034142	0.38341314	0.094271846	-0.17047777	0.80867161	-0.13122565	-0.22993446	0.79881019	0.23969174	-0.10804417	0.89772368	-0.062075895	-0.12003034	0.88380081	0.18093969	-0.30152666	0.9432881	0.057271508	-0.14431398	1.3346516	-0.12063486	-0.16774933	1.3580178	0.21055416	-0.22094479	1.3962538	0.042781143	-0.3104251	1.0119538	-0.15904203	-0.29156393	1.0074664	0.29818982	-0.2606516	0.76270186	-0.21695966	-0.08370644	0.82302131	0.30648815
180	0.716	0.14145041	-0.0095387948	0.027201878	-0.60706701	0.057002302	0.098525851	-0.0052784253	0.020966103	-0.019070647	-0.66472325	0.19328045	0.14595512	0.011509282	0.043700437	0.076701426	-0.61577612	0.19804662	0.060010048	-0.079238069	-0.012720325	0.024606245	-0.71060877	0.23318278	0.085511943	0.026376235	0.43075144	-0.082728791	-0.26846621	0.40603633	0.22280456	0.025450634	0.43647602	0.043723468	-0.2583929	0.38197631	0.095122506	-0.16391992	0.80904542	-0.13158281	-0.22256559	0.79816224	0.23925341	-0.10149615	0.89816387	-0.062658325	-0.11339268	0.88368054	0.18024055	-0.29397281	0.94419101	0.057763033	-0.137614	1.3350566	-0.12072814	-0.16080954	1.3582086	0.21055604	-0.21410056	1.3966371	0.0427628	-0.30256339	1.011693	-0.1594024	-0.28584185	1.0083597	0.2982657	-0.25125093	0.76264318	-0.21695502	-0.080134099	0.82161222	0.30685216
181	0.72	0.1415472	-0.0096219445	0.027230145	-0.60242315	0.058902407	0.099606699	-0.0050698997	0.020762356	-0.018921419	-0.65429716	0.19816718	0.14731599	0.011887225	0.043506714	0.076791684	-0.60533372	0.20133331	0.061610339	-0.079176105	-0.012655714	0.024635571	-0.69933462	0.2395587	0.087233476	0.029722676	0.43007152	-0.082540392	-0.25661324	0.40531754	0.22359898	0.02917198	0.43524906	0.043207337	-0.24610507	0.38092834	0.09587472	-0.15736379	0.80951119	-0.13195778	-0.21531423	0.79776207	0.23877912	-0.094951825	0.89862176	-0.063150952	-0.10688596	0.88374106	0.1796172	-0.28632862	0.94493026	0.057566428	-0.13091511	1.3355499	-0.12080308	-0.15395877	1.3584769	0.21059155	-0.20729148	1.3971882	0.042792893	-0.29482339	1.011512	-0.15970677	-0.2800883	1.0092901	0.29839596	-0.24173001	0.76267127	-0.21691748	-0.076651233	0.82022671	0.30720191
182	0.724	0.14160146	-0.00967628	0.027231167	-0.59730361	0.060856079	0.10079104	-0.0049477513	0.020550924	-0.018799345	-0.64363839	0.20271748	0.14866097	0.012174347	0.043381347	0.076789526	-0.59463111	0.2045379	0.063203886	-0.079151591	-0.012613539	0.024597433	-0.6879355	0.24590464	0.089162897	0.032946014	0.42926513	-0.081941493	-0.24462511	0.4048151	0.22423646	0.032541367	0.43426191	0.042718404	-0.23374545	0.38023011	0.096445678	-0.15080406	0.81010071	-0.13235233	-0.20815135	0.79763708	0.23828745	-0.088423935	0.89912493	-0.063562116	-0.100515	0.88398361	0.17907093	-0.27903316	0.94569417	0.057002998	-0.1242108	1.3361395	-0.12085243	-0.14718457	1.3588424	0.21064926	-0.20053497	1.3979383	0.042881946	-0.28718773	1.0114312	-0.15996975	-0.27431468	1.0102741	0.29856348	-0.23210053	0.76279696	-0.21684784	-0.07326399	0.81886245	0.30753687
183	0.728	0.14160778	-0.0097152324	0.027236701	-0.59157168	0.062917371	0.10211105	-0.0048850204	0.020356824	-0.018728398	-0.63277865	0.20694293	0.14996516	0.012348659	0.043307929	0.076737114	-0.58365692	0.20766272	0.064747601	-0.079173022	-0.012597653	0.024528664	-0.67623618	0.25212858	0.091136586	0.036127502	0.42849395	-0.081331345	-0.23257183	0.40454064	0.22472839	0.035724018	0.43357824	0.042331299	-0.22143829	0.3798659	0.096797113	-0.14424626	0.81083328	-0.13276093	-0.20103504	0.79779077	0.23777531	-0.081971766	0.89968885	-0.063908633	-0.094281562	0.88440647	0.17860453	-0.27226926	0.94659941	0.056390373	-0.11750662	1.3368328	-0.12088089	-0.14050126	1.3593231	0.2107245	-0.193846	1.3988838	0.043038091	-0.27960062	1.0114541	-0.16024615	-0.26852823	1.0113268	0.29875277	-0.22236777	0.76303383	-0.21674576	-0.069976034	0.81753344	0.30785993
184	0.732	0.14157066	-0.009745357	0.02725923	-0.58501884	0.065158973	0.10358106	-0.0048612185	0.020212643	-0.018716285	-0.62171836	0.21089675	0.15120271	0.012420749	0.043267098	0.076670963	-0.57244355	0.21076016	0.066153366	-0.079237973	-0.012603464	0.024461819	-0.66403137	0.25802781	0.09297559	0.039263998	0.42792571	-0.081051473	-0.22044282	0.40448416	0.22510604	0.038729255	0.4331647	0.042034313	-0.20908719	0.37984723	0.096951772	-0.13772872	0.81171387	-0.13316486	-0.1940014	0.79820359	0.23724835	-0.075629479	0.90032517	-0.064194199	-0.088170174	0.88501002	0.17822481	-0.2661079	0.94763804	0.05587949	-0.1107992	1.3376307	-0.12088583	-0.13391727	1.35993	0.21081883	-0.18715662	1.3999546	0.04317061	-0.27203037	1.0115779	-0.1605545	-0.26272363	1.0124606	0.29895086	-0.21253102	0.76339171	-0.21660753	-0.066780875	0.81626907	0.30817188
185	0.736	0.14150396	-0.0097683102	0.02729609	-0.57747336	0.067616535	0.10517719	-0.0048694217	0.020129226	-0.018743833	-0.61045338	0.21465328	0.15234808	0.012422461	0.043245488	0.076608923	-0.56101677	0.21390788	0.067364577	-0.079330864	-0.012617855	0.024409349	-0.65133384	0.26348726	0.094644997	0.042302598	0.42757383	-0.081148299	-0.20822716	0.40463458	0.22538893	0.04151154	0.43293714	0.041789414	-0.19661696	0.38018764	0.096951375	-0.13131977	0.81273482	-0.13353523	-0.18717597	0.79883902	0.23674173	-0.069374644	0.90104418	-0.064410765	-0.082160304	0.88579305	0.17793336	-0.26045795	0.94877266	0.055498914	-0.10407835	1.3385313	-0.12085412	-0.12741689	1.3606644	0.21092648	-0.18033693	1.4010398	0.043108552	-0.26447059	1.0118039	-0.16087899	-0.25689253	1.013687	0.29915106	-0.20259805	0.76387647	-0.21641472	-0.063665719	0.81509851	0.30847233
186	0.74	0.14142696	-0.0097841395	0.027333347	-0.56888748	0.070262519	0.10685413	-0.0048983135	0.020088238	-0.018796482	-0.59897014	0.21830136	0.15337129	0.012394287	0.043237966	0.076550646	-0.54939419	0.21718731	0.068384685	-0.079429736	-0.012624476	0.024367628	-0.63841646	0.26851681	0.096199805	0.045253866	0.42740381	-0.081594441	-0.19592907	0.40498502	0.22557585	0.044072242	0.432815	0.041587847	-0.18417104	0.38087697	0.096866695	-0.12507461	0.81387847	-0.13385759	-0.18067212	0.79965731	0.2362963	-0.063168154	0.90185363	-0.064554965	-0.076233682	0.88674767	0.17772044	-0.25492639	0.95003319	0.05522951	-0.0973371	1.3395353	-0.12077632	-0.12097389	1.3615208	0.21103237	-0.17336821	1.4020891	0.042826935	-0.25693149	1.0121418	-0.16119806	-0.25103765	1.0150175	0.29935263	-0.19259198	0.76449773	-0.2161417	-0.060613313	0.81404071	0.30876662
187	0.744	0.14135831	-0.0097941633	0.02735286	-0.55928435	0.07304351	0.10858747	-0.0049342807	0.02006327	-0.01887164	-0.58724892	0.22193162	0.15425538	0.012372453	0.043244039	0.076487373	-0.53762032	0.22065921	0.069226794	-0.079516891	-0.012610988	0.024330803	-0.62562648	0.27311032	0.097601785	0.048207756	0.42741615	-0.082413091	-0.1835672	0.40553685	0.22565551	0.046484696	0.43275167	0.041457354	-0.17203772	0.38188539	0.096857333	-0.11901108	0.81512206	-0.13414502	-0.17450081	0.80062963	0.23592278	-0.05699042	0.9027598	-0.064631954	-0.070370651	0.88785645	0.17757126	-0.2489727	0.95151069	0.055039742	-0.090571202	1.3406454	-0.12065262	-0.11456309	1.3624946	0.21113561	-0.16641428	1.40317	0.042554602	-0.24943027	1.0126061	-0.16150189	-0.24517502	1.0164637	0.29955385	-0.18253265	0.76527028	-0.21578004	-0.057603275	0.81310898	0.30906564
188	0.748	0.14130906	-0.0098012775	0.027342631	-0.54861316	0.075942757	0.11040866	-0.0049694818	0.020042322	-0.018959492	-0.57527879	0.22561181	0.15500764	0.012379436	0.04326346	0.076413277	-0.52576167	0.22432526	0.069882259	-0.079584348	-0.012572282	0.024299599	-0.61318575	0.2771941	0.098698429	0.051165094	0.42758657	-0.083508441	-0.17117053	0.4063017	0.22561906	0.048844614	0.43273536	0.041428212	-0.16042194	0.38317578	0.097111422	-0.11312059	0.81644485	-0.13442356	-0.16859126	0.80173609	0.23560249	-0.050843393	0.90376435	-0.064653131	-0.064556939	0.88909603	0.17747254	-0.24239745	0.9532205	0.054858475	-0.083777871	1.3418635	-0.12048872	-0.10816759	1.3635857	0.21125675	-0.15964401	1.4043885	0.04251931	-0.24197506	1.0132109	-0.16178908	-0.23932463	1.018036	0.29974574	-0.17242215	0.76620712	-0.21534566	-0.054626135	0.81231562	0.30937627
